<?xml version="1.0" encoding="UTF-8"?>
<svg id="Camada_2" data-name="Camada 2" xmlns="http://www.w3.org/2000/svg" viewBox="0 0 495.74 200.34">
  <defs>
    <style>
      .cls-1 {
        fill: #fff;
      }
    </style>
  </defs>
  <g id="Camada_1-2" data-name="Camada 1">
    <g>
      <path class="cls-1" d="M118.72,7.03v25.08h-4.1V7.03h4.1Z"/>
      <path class="cls-1" d="M165.5,21.67c0-4.59.06-9.33.18-12.01h-.16c-1.2,4.26-5.35,14.57-8.42,22.46h-3.62c-2.32-6.5-6.61-18.09-7.84-22.51h-.13c.22,2.9.31,8.4.31,12.7v9.81h-3.83V7.03h6.11c2.95,7.55,6.51,17.25,7.44,20.55h.06c.65-2.58,4.9-13.18,7.96-20.55h5.92v25.08h-3.99v-10.45Z"/>
      <path class="cls-1" d="M210.37,20.56h-13.63v8.4h14.98l-.52,3.15h-18.47V7.03h18.28v3.15h-14.27v7.23h13.63v3.15Z"/>
      <path class="cls-1" d="M236.55,21.26v10.86h-4.05V7.03h11.04c5.74,0,8.8,2.84,8.8,6.74,0,3.28-2.05,5.23-4.57,5.91,2.09.53,4.06,2.02,4.06,6.4v1.11c0,1.72-.07,3.86.38,4.93h-3.96c-.5-1.08-.49-3.02-.49-5.44v-.5c0-3.41-1.04-4.92-5.9-4.92h-5.32ZM236.55,18.17h5.81c4.04,0,5.78-1.38,5.78-4.06s-1.83-3.99-5.42-3.99h-6.17v8.05Z"/>
      <path class="cls-1" d="M276.46,25.06c.73,2.91,2.94,4.44,6.79,4.44,4.09,0,5.73-1.7,5.73-3.97,0-2.43-1.36-3.74-6.73-4.91-6.7-1.47-8.88-3.58-8.88-7.08,0-3.85,3.13-6.87,9.36-6.87,6.71,0,9.46,3.48,9.84,6.84h-4.16c-.46-2.1-1.88-3.9-5.82-3.9-3.18,0-4.99,1.29-4.99,3.56s1.48,3.13,6.25,4.17c7.9,1.74,9.36,4.51,9.36,7.79,0,4.14-3.4,7.31-10.25,7.31s-10.08-3.39-10.66-7.37h4.16Z"/>
      <path class="cls-1" d="M318.9,24.92l-2.81,7.2h-4.06l9.74-25.08h5.07l10.16,25.08h-4.35l-2.91-7.2h-10.84ZM317.43,4.51v-.88c0-2.68,1.38-3.58,3.48-3.58,2.51,0,4.9,1.85,6.35,1.85.73,0,1.21-.33,1.21-1.51v-.39h2.66v.78c0,2.93-1.33,3.84-3.51,3.84s-4.74-1.87-6.32-1.87c-.66,0-1.11.32-1.11,1.17v.59h-2.76ZM328.73,21.77c-2.5-6.35-3.91-9.83-4.52-11.8h-.04c-.68,2.19-2.25,6.38-4.26,11.8h8.83Z"/>
      <path class="cls-1" d="M381.03,19.44c0,6.92-4.33,13.03-13.07,13.03-8.23,0-12.76-5.71-12.76-12.9s4.7-12.9,13.09-12.9c7.83,0,12.74,5.27,12.74,12.77ZM359.47,19.47c0,5.32,2.92,9.87,8.66,9.87,6.2,0,8.62-4.65,8.62-9.85s-2.75-9.69-8.63-9.69-8.65,4.4-8.65,9.66Z"/>
    </g>
    <g>
      <g>
        <path class="cls-1" d="M432.51,166.72c-.84-9.38-5.87-16.54-13.45-21.16-5.79-3.33-12.18-4.34-18.91-4.29l-24.83.12.06,57.5,30.37-.3c16.75-1.03,28.8-15.04,26.74-31.87ZM403.59,186.9l-14.81.2-.05-34.12,15.19.13c9.27.07,15.55,8.06,15.18,17.42-.36,9.12-6.55,16.26-15.51,16.38Z"/>
        <polygon class="cls-1" points="13.38 187.49 13.4 176.01 43.73 175.9 43.78 164.36 13.4 164.38 13.34 153.34 47.44 153.29 47.55 141.63 0 141.65 .06 199.32 47.64 199.27 47.62 187.46 13.38 187.49"/>
        <path class="cls-1" d="M100.03,170.44c-3.93-3.31-9.11-4.46-14.13-5.4l-15.47-2.9c-1.73-.32-3.5-2.58-3.56-3.93-.27-6.12,10.83-7.56,19.15-4.8,2.13.71,3.51,2.38,4.7,4.78l12.81-.93c-.75-6.89-5.05-11.98-11.5-14.38-14.03-5.24-35-2.04-37.95,10.77-1.32,5.73-.58,10.83,3.12,14.78,2.85,3.04,6.99,5.1,11.19,5.87l19.14,3.51c2.13.39,4.07,2.7,4.15,4.45.29,6.32-11.93,7.95-20.91,4.89-2.77-.94-4.4-3.26-5.52-5.89l-12.82,1.34c2.81,17.8,25.9,20.68,41.24,15.3,5.68-1.99,9.77-6.44,10.97-11.27,1.54-6.22.11-12.22-4.61-16.2Z"/>
        <path class="cls-1" d="M157.76,178.1c-2.3,6.5-8.38,10.01-15.1,10.07-10.6.1-18.45-7.65-18.07-18.57.39-11.39,9.76-18.87,20.64-16.97,5.61.98,10.28,4.28,12.56,9.75l12.91-3.08c-4.04-11.58-14.6-18.36-26.4-18.91-9.21-.43-17.87,2.16-24.57,8.71-9.14,8.94-11.17,22.72-5.66,34.3,5.17,10.89,16.68,17.26,29.19,16.93,12.42-.33,23.56-6.94,27.6-19.26l-13.1-2.96Z"/>
        <polygon class="cls-1" points="469.11 141.17 457.39 141.28 431.27 198.74 445.34 198.86 463.34 158.91 481.39 198.77 495.74 198.67 469.11 141.17"/>
        <polygon class="cls-1" points="331.02 141.44 304.86 198.91 319.03 198.9 336.95 159.03 355.06 198.91 369.38 198.79 342.65 141.34 331.02 141.44"/>
        <polygon class="cls-1" points="262.14 187.16 262.11 141.4 248.68 141.51 248.75 199.03 297.5 198.99 297.31 187.13 262.14 187.16"/>
        <polygon class="cls-1" points="217.13 154.49 210.85 141.08 198.55 141.08 193.56 151.68 181.4 177.32 170.88 199.49 185.2 199.48 189.68 189.9 204.7 157.41 210.39 169.69 214.34 178.26 221.29 163.41 217.13 154.49"/>
        <polygon class="cls-1" points="234.95 165.07 237.94 166.76 237.92 149.34 222.95 157.99 226.04 159.74 222.12 168.21 215.86 181.56 224.12 199.45 238.46 199.41 228.64 178.51 234.95 165.07"/>
      </g>
      <g>
        <polygon class="cls-1" points="254.88 104.04 226.23 65.6 211.86 65.61 211.92 123.6 225.46 123.59 225.88 123.17 225.84 86.23 254.2 123.56 268.71 123.55 269.13 123.13 269.07 65.55 254.84 65.57 254.88 104.04"/>
        <path class="cls-1" d="M348.21,106.46c-8.48,10.19-27.28,5.92-30.21-7.44-3.39-15.46,10.92-26.97,25.26-20.26,3.03,1.42,6.21,4.7,7.33,7.87.3.26,6.88-1.21,7.84-1.44,1.16-.28,3.82-.81,4.68-1.19.32-.14.66-.22.82-.59-6.52-17.49-27.95-23.51-44.14-15.59-16.74,8.19-22.03,29.87-10.62,44.78,9.01,11.77,26.53,14.95,39.85,9.15,7.01-3.05,12.65-8.86,15.11-16.15l-13.56-3.6c-.26,1.65-1.33,3.22-2.37,4.47Z"/>
        <path class="cls-1" d="M107.11,108.54c-9.36,7.38-24.99,3.33-28.22-8.5-3.8-13.9,8.08-26.38,22.17-22.19,5.03,1.5,7.94,4.62,10.51,9.03l12.18-2.82c.2-.08.39-.19.45-.4.09-.29-1.32-3.39-1.61-3.92-13.15-24.47-53.05-18.16-58.38,9.86-5.21,27.35,27.21,44.09,49.42,30.33,5.06-3.13,9.32-8.59,10.88-14.33l-13.38-3.34c-.4,2.18-2.3,4.94-4.03,6.29Z"/>
        <path class="cls-1" d="M406.65,65.68c-.22-.28-.52-.25-.83-.29-2.29-.27-9.2-.27-11.47.01-.31.04-.62-.02-.82.29l-25.09,56.89c-.25.29.13.85.31.85h13.4s18.1-39.35,18.1-39.35l17.9,39.29h13.81s-25.31-57.71-25.31-57.71Z"/>
        <path class="cls-1" d="M146.3,111.4l-.05-45.72-14.23.15.06,57.85,46.74-.05.42-.42v-11.15c-.01-.09-.38-.42-.29-.7l-32.65.03Z"/>
        <path class="cls-1" d="M293.9,67.89c-.03-.94.81-2.17-.4-2.36h-13.53s.06,57.59.06,57.59l.42.42h13.12c.23-.01.82-.9.71-1.26-.16-18.13.24-36.29-.37-54.39Z"/>
        <polygon class="cls-1" points="187.17 80.97 187.07 123.63 200.6 123.62 201.02 123.2 200.98 81.38 200.56 80.96 187.17 80.97"/>
        <path class="cls-1" d="M186.73,67.45v11.29c1.39.03,2.19-1.18,3.1-1.79,4.85-3.27,9.52-6.84,14.48-9.93v-11.29s-.7-.41-.7-.41l-16.88,12.14Z"/>
      </g>
    </g>
  </g>
</svg>