<?xml version="1.0" encoding="UTF-8"?>
<svg id="Camada_2" xmlns="http://www.w3.org/2000/svg" version="1.1" viewBox="0 0 421.7 163.6">
  <!-- Generator: Adobe Illustrator 30.3.0, SVG Export Plug-In . SVG Version: 2.1.3 Build 182)  -->
  <defs>
    <style>
      .st0 {
        fill: #fff;
      }
    </style>
  </defs>
  <g id="Camada_1-2">
    <g>
      <path class="st0" d="M2.7,4.7v16.6H0V4.7h2.7Z"/>
      <path class="st0" d="M33.8,14.4c0-3,0-6.2.1-8h0c-.8,2.8-3.5,9.7-5.6,14.9h-2.4c-1.5-4.3-4.4-12-5.2-14.9h0c.1,1.9.2,5.6.2,8.4v6.5h-2.5V4.7h4c2,5,4.3,11.4,4.9,13.6h0c.4-1.7,3.2-8.8,5.3-13.6h3.9v16.6h-2.7v-6.9h0Z"/>
      <path class="st0" d="M63.5,13.6h-9v5.6h9.9l-.3,2.1h-12.3V4.7h12.1v2.1h-9.5v4.8h9s0,2.1,0,2.1Z"/>
      <path class="st0" d="M80.9,14.1v7.2h-2.7V4.7h7.3c3.8,0,5.8,1.9,5.8,4.5s-1.4,3.5-3,3.9c1.4.4,2.7,1.3,2.7,4.2v.7c0,1.1,0,2.6.2,3.3h-2.6c-.3-.7-.3-2-.3-3.6v-.3c0-2.3-.7-3.3-3.9-3.3h-3.5,0ZM80.9,12.1h3.9c2.7,0,3.8-.9,3.8-2.7s-1.2-2.7-3.6-2.7h-4.1v5.3h0Z"/>
      <path class="st0" d="M107.4,16.6c.5,1.9,1.9,3,4.5,3s3.8-1.1,3.8-2.6-.9-2.5-4.5-3.3c-4.4-1-5.9-2.4-5.9-4.7s2.1-4.6,6.2-4.6,6.3,2.3,6.5,4.5h-2.8c-.3-1.4-1.2-2.6-3.9-2.6s-3.3.8-3.3,2.4,1,2.1,4.2,2.8c5.2,1.1,6.2,3,6.2,5.2s-2.2,4.9-6.8,4.9-6.7-2.2-7.1-4.9h2.8,0Z"/>
      <path class="st0" d="M135.6,16.5l-1.9,4.8h-2.7l6.5-16.6h3.4l6.8,16.6h-2.9l-1.9-4.8h-7.2ZM134.6,3v-.6c0-1.8.9-2.4,2.3-2.4s3.2,1.2,4.2,1.2.8-.2.8-1V0h1.8v.5c0,1.9-.9,2.5-2.3,2.5s-3.1-1.2-4.2-1.2-.7.2-.7.8v.4h-1.8,0ZM142.1,14.4c-1.7-4.2-2.6-6.5-3-7.8h0c-.4,1.5-1.5,4.2-2.8,7.8h5.9Z"/>
      <path class="st0" d="M176.8,12.9c0,4.6-2.9,8.6-8.7,8.6s-8.5-3.8-8.5-8.6,3.1-8.6,8.7-8.6,8.4,3.5,8.4,8.5h0ZM162.5,12.9c0,3.5,1.9,6.6,5.8,6.6s5.7-3.1,5.7-6.5-1.8-6.4-5.7-6.4-5.7,2.9-5.7,6.4Z"/>
    </g>
    <path class="st0" d="M367.9,135.3c-.7-8-5-14.1-11.4-18-4.9-2.8-10.4-3.7-16.1-3.7h-21.1v49l25.8-.2c14.2-.9,24.5-12.8,22.8-27.1ZM343.3,152.4l-12.6.2v-29h12.9c7.9.2,13.2,7,12.9,14.9-.3,7.8-5.6,13.8-13.2,13.9Z"/>
    <polygon class="st0" points="11.3 152.6 11.4 142.8 37.2 142.7 37.2 132.9 11.4 132.9 11.3 123.5 40.3 123.5 40.5 113.6 0 113.6 0 162.6 40.5 162.6 40.5 152.6 11.3 152.6"/>
    <path class="st0" d="M85.1,138.1c-3.3-2.8-7.7-3.8-12-4.6l-13.2-2.5c-1.5-.3-3-2.2-3-3.3-.2-5.2,9.2-6.4,16.3-4.1,1.8.6,3,2,4,4.1l10.9-.8c-.6-5.9-4.3-10.2-9.8-12.2-11.9-4.5-29.8-1.8-32.3,9.1-1.1,4.9-.5,9.2,2.6,12.6,2.4,2.6,5.9,4.4,9.5,5l16.3,3c1.8.3,3.5,2.3,3.5,3.8.2,5.4-10.2,6.8-17.8,4.1-2.3-.8-3.7-2.8-4.7-5l-10.9,1.1c2.4,15.1,22,17.6,35.1,13.1,4.8-1.7,8.3-5.5,9.3-9.6,1.3-5.3.1-10.4-3.9-13.8h0Z"/>
    <path class="st0" d="M134.2,144.7c-2,5.5-7.1,8.5-12.9,8.6-9,0-15.7-6.5-15.4-15.8.3-9.7,8.3-16,17.6-14.4,4.8.8,8.7,3.7,10.7,8.3l11-2.6c-3.4-9.9-12.4-15.6-22.4-16.1-7.8-.4-15.2,1.8-20.9,7.4-7.8,7.6-9.5,19.3-4.8,29.2,4.4,9.3,14.2,14.7,24.8,14.4,10.6-.3,20.1-5.9,23.5-16.4l-11.1-2.5h0Z"/>
    <polygon class="st0" points="399.1 113.6 389.1 113.6 366.8 162.5 378.8 162.6 394.2 128.6 409.5 162.6 421.7 162.5 399.1 113.6"/>
    <polygon class="st0" points="281.6 113.7 259.3 162.5 271.4 162.5 286.6 128.6 302 162.6 314.2 162.5 291.5 113.6 281.6 113.7"/>
    <polygon class="st0" points="223 152.5 223 113.6 211.6 113.7 211.6 162.6 253 162.6 252.9 152.5 223 152.5"/>
    <polygon class="st0" points="184.7 124.7 179.4 113.2 168.9 113.2 164.7 122.3 154.3 144.1 145.3 162.9 157.5 162.9 161.3 154.8 174.1 127.1 179 137.6 182.3 144.9 188.2 132.3 184.7 124.7"/>
    <polygon class="st0" points="199.9 133.7 202.4 135.1 202.4 120.3 189.6 127.7 192.3 129.1 188.9 136.3 183.6 147.7 190.6 162.9 202.8 162.9 194.5 145.1 199.9 133.7"/>
    <g>
      <polygon class="st0" points="166.5 79.1 141.6 45.6 129.1 45.6 129.1 96.1 140.9 96.1 141.2 95.7 141.2 63.5 165.9 96.1 178.5 96.1 178.9 95.7 178.9 45.6 166.5 45.6 166.5 79.1"/>
      <path class="st0" d="M247.8,81.3c-7.4,8.9-23.8,5.1-26.3-6.5-2.9-13.5,9.5-23.5,22-17.6,2.6,1.2,5.4,4.1,6.4,6.9.3.2,6-1,6.8-1.2,1-.2,3.3-.7,4.1-1,.3-.1.6-.2.7-.5-5.7-15.2-24.3-20.5-38.4-13.6-14.6,7.1-19.2,26-9.3,39,7.8,10.3,23.1,13,34.7,8,6.1-2.7,11-7.7,13.2-14.1l-11.8-3.2c-.2,1.4-1.2,2.8-2.1,3.9h0Z"/>
      <path class="st0" d="M37.8,82.9c-8.2,6.4-21.8,2.9-24.6-7.4-3.3-12.1,7.1-23,19.3-19.3,4.4,1.3,6.9,4,9.2,7.9l10.6-2.5c.2,0,.3-.2.4-.3,0-.2-1.2-3-1.4-3.4C39.9,36.5,5.2,41.9.5,66.3c-4.6,23.8,23.6,38.4,43,26.5,4.4-2.7,8.1-7.5,9.5-12.5l-11.6-2.9c-.3,1.9-2,4.3-3.5,5.5h0Z"/>
      <path class="st0" d="M298.7,45.8c-.2-.2-.5-.2-.7-.2-2-.2-8-.2-10,0-.3,0-.5,0-.7.3l-21.9,49.5c-.2.2.1.7.3.7h11.7l15.8-34.2,15.5,34.2h12l-22-50.3h0Z"/>
      <path class="st0" d="M71.9,85.4v-39.8h-12.4v50.5h40.7l.4-.4v-9.7c0,0-.3-.4-.2-.6h-28.4Z"/>
      <path class="st0" d="M200.5,47.6c0-.8.7-1.9-.4-2.1h-11.8v50.1l.4.4h11.4c.2,0,.7-.8.6-1.1-.1-15.8.2-31.6-.3-47.4h0Z"/>
      <polygon class="st0" points="107.6 58.9 107.4 96.1 119.2 96.1 119.6 95.7 119.6 59.3 119.2 58.9 107.6 58.9"/>
      <path class="st0" d="M107.2,47.2v9.8c1.2,0,1.9-1,2.7-1.6,4.2-2.8,8.3-6,12.6-8.6v-9.8l-.6-.4s-14.7,10.6-14.7,10.6Z"/>
    </g>
  </g>
</svg>