<?xml version="1.0" encoding="UTF-8"?>
<svg id="Camada_2" data-name="Camada 2" xmlns="http://www.w3.org/2000/svg" viewBox="0 0 232.66 109.59">
  <defs>
    <style>
      .cls-1 {
        fill: #012e40;
      }
    </style>
  </defs>
  <g id="Camada_1-2" data-name="Camada 1">
    <g>
      <path class="cls-1" d="M110.59,44.97c10.18-3.39,14.14-10.72,15.27-23.7l-46.37,19.19c6.79,4.52,23.18,7.15,31.1,4.52Z"/>
      <path class="cls-1" d="M124.17,1.6c-8.32,2.82-12.2,10.17-13.31,23.16l46.02-19.63c-12.2-4.52-23.84-6.92-32.71-3.53Z"/>
      <polygon class="cls-1" points="43.23 69 35.41 95.06 27.57 69 22.44 69 14.57 95.03 6.79 69 0 69 12.17 109.03 17.06 109.03 24.95 82.65 32.96 109.03 37.87 109.03 50.04 69 43.23 69"/>
      <path class="cls-1" d="M73.51,91.34c2.63-3.52,3.95-7.08,3.95-10.68,0-2.41-.55-4.48-1.65-6.23-1.08-1.74-2.59-3.07-4.52-3.99-1.93-.92-4.11-1.37-6.55-1.37-2.65,0-5.04.54-7.17,1.62-2.11,1.06-3.79,2.69-5.03,4.88-1.23,2.19-1.84,4.92-1.84,8.17,0,.31.02.8.05,1.48h6.41c-.04-.76-.05-1.3-.05-1.65,0-2.19.31-3.89.92-5.1.63-1.22,1.5-2.07,2.6-2.53,1.1-.47,2.47-.7,4.11-.7,2.13,0,3.72.41,4.76,1.24,1.06.83,1.6,2.22,1.6,4.18,0,2.07-.75,4.22-2.25,6.47-1.48,2.23-3.74,4.69-6.79,7.39-3.05,2.68-7.11,5.86-12.18,9.54h0v4.91h28.82v-6.18h-16.83c5.14-4.12,9.02-7.94,11.64-11.46Z"/>
      <path class="cls-1" d="M115.82,103.85c-2.51,1.91-5.68,2.87-9.53,2.87-3.02,0-5.68-.74-7.97-2.21-2.29-1.47-4.07-3.54-5.32-6.22-1.25-2.68-1.88-5.78-1.88-9.3s.62-6.62,1.85-9.27c1.25-2.68,3.03-4.74,5.32-6.19,2.31-1.47,4.99-2.21,8.05-2.21,3.8,0,6.92.97,9.37,2.9,2.47,1.91,4.04,4.87,4.72,8.87h2.44c-.45-3.12-1.44-5.72-2.98-7.81-1.54-2.09-3.47-3.65-5.8-4.68-2.31-1.03-4.88-1.54-7.71-1.54-3.67,0-6.84.88-9.53,2.63-2.67,1.75-4.7,4.14-6.1,7.17-1.4,3.01-2.09,6.37-2.09,10.12s.7,7.15,2.09,10.18c1.41,3.03,3.45,5.42,6.12,7.17,2.67,1.75,5.82,2.63,9.45,2.63h0c2.86,0,5.47-.51,7.81-1.54,2.34-1.03,4.3-2.59,5.85-4.68,1.56-2.09,2.57-4.69,3.04-7.81h-2.44c-.68,4-2.27,6.97-4.78,8.9Z"/>
      <polygon class="cls-1" points="135.85 69.03 133.48 69.03 133.48 108.9 158.16 108.9 158.16 106.59 135.85 106.59 135.85 69.03"/>
      <path class="cls-1" d="M191.77,92.67c0,3.39-.42,6.14-1.27,8.27-.85,2.12-2.22,3.71-4.11,4.75-1.89,1.04-4.45,1.56-7.62,1.56s-5.69-.52-7.59-1.56c-1.88-1.04-3.24-2.63-4.08-4.75-.85-2.12-1.27-4.88-1.27-8.27v-23.64h-2.43v23.59c0,5.78,1.23,10.06,3.7,12.82,2.48,2.76,6.38,4.15,11.68,4.15s9.22-1.38,11.71-4.15c2.48-2.76,3.73-7.04,3.73-12.82v-23.59h-2.43v23.64Z"/>
      <path class="cls-1" d="M230.89,91.79c-1.18-1.52-2.75-2.58-4.72-3.19,1.66-.79,2.89-1.92,3.7-3.4.81-1.5,1.22-3.21,1.22-5.14,0-2.42-.54-4.45-1.63-6.1-1.09-1.67-2.59-2.9-4.5-3.71-1.91-.82-4.11-1.24-6.6-1.24h-14.77v39.87h16.26c3.92,0,7.03-.89,9.33-2.66,2.32-1.78,3.48-4.52,3.48-8.24,0-2.62-.59-4.69-1.77-6.21ZM205.96,71.34h12.23c3.24,0,5.78.73,7.62,2.2,1.86,1.45,2.79,3.63,2.79,6.54,0,2.75-.8,4.71-2.4,5.9-1.58,1.17-3.92,1.76-7.01,1.76h0s-13.22,0-13.22,0v-16.39ZM227.6,104.45c-1.73,1.43-4.43,2.14-8.09,2.14h0s-13.55,0-13.55,0v-16.61h13.28c2.6,0,4.69.28,6.29.82,1.6.53,2.78,1.39,3.53,2.58.76,1.17,1.13,2.73,1.13,4.67,0,2.84-.87,4.97-2.6,6.4Z"/>
    </g>
  </g>
</svg>